<svg version="1" xmlns="http://www.w3.org/2000/svg" width="266.667" height="266.667" viewBox="0 0 200.000000 200.000000"><path d="M98.7 98.8C46.6 150.9 4 194 4 194.7c0 .6 1.9 2.1 4.3 3.2 4.3 2.1 5.1 2.1 91.7 2.1 86.2 0 87.4 0 91.6-2.1 3.1-1.5 4.8-3.2 6.3-6.3 2.1-4.2 2.1-5.4 2.1-91.6 0-86.6 0-87.4-2.1-91.7-1.1-2.4-2.6-4.3-3.2-4.3-.7 0-43.8 42.6-96 94.8zM150 118c.7 1.6 1.6 3 2.1 3 .4 0 .6 2.9.4 6.5l-.3 6.5h4.1c5.2 0 11.9 4.3 11.5 7.4-.4 2.7-5.5 4.5-13 4.5l-5.6.1-1.1 5.1c-.6 2.9-1.9 6.7-2.8 8.6-1.5 3.3-1.7 3.4-7.2 3.1l-5.6-.3v-7.6l.1-7.6-3.9.9c-4.8 1.1-8.4-.8-9.3-5-.3-1.5-.7-3.2-.9-3.9-.7-2.1 2.5-4.3 6.3-4.4 6.3-.1 11.7-1.4 11.4-2.8-.1-.7.1-1.8.6-2.5.5-.6 1.5-3.3 2.3-6 2.3-8 8.6-11.3 10.9-5.6z"/></svg>