<svg version="1" xmlns="http://www.w3.org/2000/svg" width="682.667" height="682.667" viewBox="0 0 512.000000 512.000000"><path d="M252.7 252.8C118.7 386.8 9 497 9 497.7c0 1.9 10 9.2 15.1 11 2.7 1 4.9 2.1 4.9 2.5 0 .5 102.1.8 227 .8s227-.3 227-.8c0-.4 2.2-1.5 4.8-2.4 9-3.2 17.8-12 20.9-21 1-2.6 2.1-4.8 2.5-4.8.5 0 .8-102.1.8-227s-.3-227-.8-227c-.4 0-1.5-2.2-2.5-4.9-1.8-5.1-9.1-15.1-11-15.1-.7 0-110.9 109.7-245 243.8zm126.9 42c.6.4 2.3 3.3 3.9 6.6 1.6 3.2 4.1 7 5.7 8.5l2.9 2.7-1.6 5.9c-1.9 7.4-1.9 9 0 11.8 1.3 2.1 1.3 2.8-.2 6.5-.9 2.3-1.3 4.5-1 4.8.3.4 5 .9 10.3 1.1 11.1.6 16.2 2.4 21.3 7.7 1.9 2 3.9 3.6 4.5 3.6.5 0 1.8.7 2.8 1.7 3.6 3.3 1.5 13.3-2.9 13.3-.7 0-2.1.4-3.1.9-4.3 2.2-17.4 4.1-28.4 4.1-6.5 0-11.9.4-12.3 1-.3.5-1.3 4.4-2.1 8.7-2.1 11.4-6.1 23.4-9.4 28.7l-3 4.6h-12.1c-10.6 0-12.4-.3-15-2.1-2.6-1.8-2.9-2.6-2.9-7.7 0-3.1.5-9.8 1.2-14.7 1.6-13 1.6-15.1-.2-14.6-.8.2-4 .7-7 1.2-3 .4-7 1.1-8.8 1.5-3.5.7-8.7-1.2-11.4-4.3-3.1-3.4-5.8-9.4-5.8-12.6 0-1.8-.7-4.5-1.5-6.1-1.4-2.6-1.4-3.1 0-4.6.8-.9 1.5-2.4 1.5-3.3 0-2.6 8.6-4.1 36.2-6.3 7.8-.6 9.7-2.1 7.9-6-1-2.2-.8-3 1.4-5.5 1.6-2 2.4-4.1 2.3-6.2-.1-1.9 1-5.3 2.5-8 1.5-2.6 2.7-6.2 2.7-8 0-2.4.9-4.1 3.3-6.4 7.7-7.4 15-10.8 18.3-8.5z"/></svg>